<svg width="42" height="42" viewBox="0 0 42 42" fill="none" xmlns="http://www.w3.org/2000/svg">
<g clip-path="url(#clip0_2051_70)">
<path d="M26.25 3.5C21.5075 3.5 17.4125 6.195 15.365 10.115C13.125 11.2875 11.27 13.125 10.115 15.365C6.195 17.4125 3.5 21.5075 3.5 26.25C3.5 33.0225 8.9775 38.5 15.75 38.5C20.4925 38.5 24.5875 35.805 26.635 31.885C28.875 30.7125 30.73 28.875 31.885 26.635C35.805 24.5875 38.5 20.4925 38.5 15.75C38.5 8.9775 33.0225 3.5 26.25 3.5ZM15.75 35C10.92 35 7 31.08 7 26.25C7 24.29 7.6475 22.47 8.75 21C8.75 27.7725 14.2275 33.25 21 33.25C19.53 34.3525 17.71 35 15.75 35ZM21 29.75C16.17 29.75 12.25 25.83 12.25 21C12.25 19.04 12.8975 17.22 14 15.75C14 22.505 19.4775 27.9825 26.25 28C24.78 29.1025 22.96 29.75 21 29.75Z" fill="#3776FF"/>
</g>
<defs>
<clipPath id="clip0_2051_70">
<rect width="42" height="42" fill="white"/>
</clipPath>
</defs>
</svg>
